<svg xmlns="http://www.w3.org/2000/svg" viewBox="0 0 512 512" role="img" aria-label="Tempahlah">
  <defs>
    <!-- Calendar body: teal (top-left) → ocean blue (bottom-right) -->
    <linearGradient id="tl-body" x1="0" y1="0" x2="1" y2="1">
      <stop offset="0%"  stop-color="#2cb8c4"/>
      <stop offset="55%" stop-color="#2596c6"/>
      <stop offset="100%" stop-color="#2381c9"/>
    </linearGradient>

    <!-- Growth chart line: brighter teal-blue -->
    <linearGradient id="tl-chart" x1="0" y1="0" x2="1" y2="0.4">
      <stop offset="0%"  stop-color="#3fb8d4"/>
      <stop offset="100%" stop-color="#2188db"/>
    </linearGradient>

    <!-- Diagonal swoosh: lighter teal sheen -->
    <linearGradient id="tl-swoosh" x1="0" y1="1" x2="1" y2="0">
      <stop offset="0%"  stop-color="#2486c5"/>
      <stop offset="55%" stop-color="#39afcc"/>
      <stop offset="100%" stop-color="#5dcad6"/>
    </linearGradient>

    <!-- Clip the chart line to the inner white card so it doesn't escape -->
    <clipPath id="tl-card-clip">
      <rect x="112" y="208" width="288" height="216" rx="20"/>
    </clipPath>
  </defs>

  <!-- Two ring binders (capsules with white inset) -->
  <rect x="166" y="76"  width="40" height="108" rx="20" fill="url(#tl-body)"/>
  <rect x="176" y="98"  width="20" height="64"  rx="10" fill="#ffffff"/>
  <rect x="306" y="76"  width="40" height="108" rx="20" fill="url(#tl-body)"/>
  <rect x="316" y="98"  width="20" height="64"  rx="10" fill="#ffffff"/>

  <!-- Calendar body (rounded square) -->
  <rect x="68" y="128" width="376" height="316" rx="48" fill="url(#tl-body)"/>

  <!-- Inner white "page" area -->
  <rect x="108" y="208" width="296" height="220" rx="22" fill="#ffffff"/>

  <!-- Growth-chart zigzag — thicker stroke so it stays legible at small sizes (28-40px chrome) -->
  <g clip-path="url(#tl-card-clip)">
    <path d="M 140 388 L 218 270 L 268 332 L 326 232 L 388 316"
          fill="none"
          stroke="url(#tl-chart)"
          stroke-width="48"
          stroke-linejoin="round"
          stroke-linecap="round"/>
  </g>

  <!-- Diagonal swoosh — chunkier so it survives downsizing -->
  <path d="M 18 470
           Q 220 350 492 178
           Q 280 360 50 488 Z"
        fill="url(#tl-swoosh)"
        opacity="0.95"/>
</svg>
